<?xml version="1.0" encoding="UTF-8"?>
<svg width="24px" height="18px" viewBox="0 0 24 18" version="1.1" xmlns="http://www.w3.org/2000/svg" xmlns:xlink="http://www.w3.org/1999/xlink">
    <!-- Generator: Sketch 52.1 (67048) - http://www.bohemiancoding.com/sketch -->
    <title>Icon</title>
    <desc>Created with Sketch.</desc>
    <g id="Two-Tone-Icons" stroke="none" stroke-width="1" fill="none" fill-rule="evenodd">
        <g transform="translate(-68.000000, -329.000000)" id="Credit-Card">
            <g transform="translate(40.000000, 310.000000)">
                <g id="Icon" transform="translate(28.000000, 19.000000)">
                    <polygon id="Fill" fill="#DAF3FF" points="0.5 9.5 23.499 9.5 23.499 4.5 0.5 4.5"></polygon>
                    <path d="M1,4 L23,4 L23,1 L1,1 L1,4 Z M1,17 L23,17 L23,10 L1,10 L1,17 Z M1,9 L23,9 L23,5 L1,5 L1,9 Z M23,0 L1,0 C0.448,0 0,0.448 0,1 L0,17 C0,17.552 0.448,18 1,18 L23,18 C23.552,18 24,17.552 24,17 L24,1 C24,0.448 23.552,0 23,0 L23,0 Z M8.5,15 L3.5,15 C3.224,15 3,14.776 3,14.5 L3,14.5 C3,14.224 3.224,14 3.5,14 L8.5,14 C8.776,14 9,14.224 9,14.5 L9,14.5 C9,14.776 8.776,15 8.5,15" id="Outline" fill="#0096ff"></path>
                </g>
            </g>
        </g>
    </g>
</svg>