<?xml version="1.0" encoding="UTF-8"?>
<svg width="20px" height="22px" viewBox="0 0 20 22" version="1.1" xmlns="http://www.w3.org/2000/svg" xmlns:xlink="http://www.w3.org/1999/xlink">
    <!-- Generator: Sketch 52.1 (67048) - http://www.bohemiancoding.com/sketch -->
    <title>Icon</title>
    <desc>Created with Sketch.</desc>
    <g id="Two-Tone-Icons" stroke="none" stroke-width="1" fill="none" fill-rule="evenodd">
        <g transform="translate(-340.000000, -56.000000)" id="Home">
            <g transform="translate(310.000000, 40.000000)">
                <g id="Icon" transform="translate(30.000000, 16.000000)">
                    <path d="M6,21 L6,11.5 C6,11.225 6.199,11 6.444,11 L13.556,11 C13.801,11 14,11.225 14,11.5 L14,21 L6,21 Z" id="Fill" fill="#DAF3FF"></path>
                    <path d="M19,21 L15,21 L15,11.091 C15,10.488 14.552,10 14,10 L6,10 C5.448,10 5,10.488 5,11.091 L5,21 L1,21 L1,6.449 L10,1.008 L19,6.449 L19,21 Z M6,21 L14,21 L14,11 L6,11 L6,21 Z M19.515,5.585 L10.515,0.144 C10.356,0.048 10.178,0 10,0 C9.822,0 9.644,0.048 9.486,0.144 L0.486,5.585 C0.184,5.767 0,6.095 0,6.449 L0,20.992 C0,21.549 0.448,22 1,22 L5,22 L15,22 L19,22 C19.552,22 20,21.549 20,20.992 L20,6.449 C20,6.095 19.816,5.767 19.515,5.585 L19.515,5.585 Z" id="Outline" fill="#0096ff"></path>
                </g>
            </g>
        </g>
    </g>
</svg>