<svg xmlns="http://www.w3.org/2000/svg" viewBox="0 0 975.87 240.27"><defs><style>.cls-1{fill:#fff;}.cls-2{fill:#e9d200;}.cls-3{fill:#888;}</style></defs><title>Asset 1</title><g id="Layer_2" data-name="Layer 2"><g id="Layer_1-2" data-name="Layer 1"><path class="cls-1" d="M256.15,58c22.23,0,33.47,15.16,33.47,31.38v82.38H309.5v11.76H254.06V171.71h22V93c0-12.55-6-22.75-20.65-22.75-14.13,0-32.17,9.15-45.77,22.23v79.24h20.14v11.76H173.25V171.71H196V71.54H173.25V59.78H209.6V78.87C226.6,65,242.81,58,256.15,58Z"/><path class="cls-2" d="M312.11,186.09H251.44v-17h22V93c0-7.52-2.34-20.14-18-20.14-12.87,0-29.7,8.11-43.15,20.74v75.5h20.13v17H170.63v-17h22.76V74.16H170.63v-17h41.59V73.49c15.72-11.9,30.83-18.16,43.93-18.16,17.38,0,36.09,10.64,36.09,34v79.76h19.87Zm-55.44-5.23h50.21v-6.54H287v-85c0-14.32-9.54-28.77-30.86-28.77-12.87,0-28.82,7.22-44.9,20.33L207,84.37v-22H175.86v6.54h22.76V174.32H175.86v6.54h51.26v-6.54H207v-83l.8-.77c14.5-14,33.18-23,47.58-23,14.57,0,23.27,9.49,23.27,25.37v81.33h-22Z"/><path class="cls-1" d="M410.69,58c22.23,0,33.48,15.16,33.48,31.38v82.38H464v11.76H408.6V171.71h22V93c0-12.55-6-22.75-20.65-22.75-14.13,0-32.17,9.15-45.77,22.23v79.24h20.14v11.76H327.79V171.71h22.75V71.54H327.79V59.78h36.35V78.87C381.14,65,397.35,58,410.69,58Z"/><path class="cls-2" d="M466.65,186.09H406v-17h22V93c0-7.52-2.34-20.14-18-20.14-12.87,0-29.7,8.11-43.15,20.74v75.5h20.13v17H325.18v-17h22.75V74.16H325.18v-17h41.58V73.49c15.73-11.9,30.84-18.16,43.93-18.16,17.38,0,36.09,10.64,36.09,34v79.76h19.87Zm-55.44-5.23h50.21v-6.54H441.55v-85c0-14.32-9.54-28.77-30.86-28.77-12.87,0-28.82,7.22-44.9,20.33l-4.26,3.48v-22H330.41v6.54h22.75V174.32H330.41v6.54h51.25v-6.54H361.53v-83l.8-.77c14.5-14,33.18-23,47.58-23,14.57,0,23.27,9.49,23.27,25.37v81.33h-22Z"/><path class="cls-2" d="M563.4,58c22.5,0,30.34,16.73,31.39,22,14.9-13.07,32.68-22,48.11-22,23,0,32.17,15.16,32.17,32.69v81.07H695v11.76H640.29V171.71h21.18V91.94c0-14.12-7.06-21.7-20.39-21.7-15.43,0-32.17,9.67-45,22.49v79h20.4v11.76H561.31V171.71h21.18V91.94c0-13.86-7-21.7-19.87-21.7-15.17,0-27.72,6.8-45.5,22.49v79h20.4v11.76H481.81V171.71h21.71V71.54H481.81V59.78h35.31V78.87C531.5,65.79,547.71,58,563.4,58Z"/><path class="cls-2" d="M697.56,186.09H637.67v-17h21.19V91.94c0-12.66-6-19.09-17.78-19.09-13.16,0-28.93,7.82-42.37,21v75.27h20.4v17H558.7v-17h21.18V91.94c0-8.71-3-19.09-17.26-19.09-13.64,0-25.34,5.73-42.89,21.06v75.18h20.4v17H479.2v-17h21.7V74.16H479.2v-17h40.53v16C534,61.47,549,55.33,563.4,55.33c19.79,0,29.29,12.35,32.64,20.09,15.59-12.81,32.5-20.09,46.86-20.09,21.78,0,34.78,13.2,34.78,35.31v78.45h19.88Zm-54.66-5.23h49.43v-6.54H672.45V90.64c0-9-2.87-30.08-29.55-30.08-14,0-30.94,7.77-46.39,21.32l-3.4,3-.89-4.43c-1-5.16-8.54-19.87-28.82-19.87-14.35,0-30.17,7.19-44.52,20.24l-4.38,4V62.39H484.43v6.54h21.7V174.32h-21.7v6.54H534.9v-6.54H514.5V91.55l.89-.78c19.12-16.88,31.92-23.15,47.23-23.15,14.29,0,22.49,8.87,22.49,24.32v82.38H563.93v6.54h50v-6.54h-20.4V91.64l.77-.76c14.56-14.56,32.07-23.26,46.83-23.26s23,8.64,23,24.32v82.38H642.9Z"/><path class="cls-2" d="M758,56c37.14,0,45.51,19.36,45.51,34.26v81.07H824v11.77H790V165.27c-12.81,10.73-28.5,19.62-45.76,19.62-21.19,0-37.66-16.48-37.66-36.61,0-22.23,19.09-38.18,45.76-38.18,13.6,0,26.15,4.18,37.66,10.19V90.75c0-11-5.75-25.11-33-25.11-30.07,0-36.09,18-38.18,21.18l-10.2-2.61C718.29,64.07,733.2,56,758,56Zm-37.65,93.1c0,14.65,11.5,25.37,27.19,25.37,14.39,0,32.17-8.63,42.37-20.66V131.28c-14.65-8.37-23.8-11-35.56-11C733.2,120.29,720.39,132.85,720.39,149.06Z"/><path class="cls-2" d="M744.19,187.5c-22.21,0-40.28-17.59-40.28-39.22,0-23.64,20.35-40.8,48.38-40.8,11.44,0,23,2.81,35.05,8.58V90.75c0-10.26-5.27-22.49-30.34-22.49-25.3,0-32.38,13.31-35,18.32a18,18,0,0,1-1,1.69l-1,1.54L704.88,86l1.38-2.88c10-20.83,25.5-29.72,51.78-29.72,43.44,0,48.12,25.79,48.12,36.87v78.46h20.4v17H787.34V170.72C772.75,181.86,758.25,187.5,744.19,187.5Zm8.1-74.79c-25,0-43.15,15-43.15,35.57,0,19.06,15.39,34,35.05,34,14.18,0,29-6.39,44.08-19l4.3-3.59v20.76h28.76v-6.53h-20.4V90.22c0-11.82-5.57-31.64-42.89-31.64-23,0-36.5,7-45.61,23.9l5.08,1.31C720.47,78.25,729.14,63,757,63c10.69,0,35.57,2.7,35.57,27.72v33.86l-3.83-2C776,116,764.07,112.71,752.29,112.71ZM747.58,177c-17.27,0-29.81-11.76-29.81-28,0-18.48,15.06-31.38,36.62-31.38,12.57,0,22.22,3,36.86,11.33l1.32.75v25l-.63.73C781.34,168,762.68,177,747.58,177Zm6.81-54.13c-18.78,0-31.39,10.51-31.39,26.15,0,13.19,10.34,22.75,24.58,22.75,13.41,0,30-7.95,39.76-19v-20C774.17,125.43,765.71,122.91,754.39,122.91Z"/><path class="cls-2" d="M876,59.36V171.29h21.18v11.77H840.67V171.29h21.71V71.13H840.67V59.36ZM865.26,2.62A10.71,10.71,0,0,1,876,13.08,11,11,0,0,1,865.26,23.8,10.71,10.71,0,0,1,854.8,13.08,10.48,10.48,0,0,1,865.26,2.62Z"/><path class="cls-2" d="M899.77,185.67H838.06v-17h21.7V73.75h-21.7v-17h40.53V168.68h21.18Zm-56.48-5.23h51.25v-6.53H873.36V62H843.29v6.54H865V173.91h-21.7Zm22-154a13.38,13.38,0,0,1-13.08-13.34A13.1,13.1,0,0,1,865.26,0a13.38,13.38,0,0,1,13.33,13.07A13.5,13.5,0,0,1,865.26,26.41Zm0-21.18a7.85,7.85,0,0,0-7.85,7.84,8.08,8.08,0,0,0,7.85,8.11,8.32,8.32,0,0,0,8.1-8.11A8.08,8.08,0,0,0,865.26,5.23Z"/><path class="cls-2" d="M951,5.49v165.8h22.23v11.77H915.2V171.29h22.23v-154H914.94V5.49Z"/><path class="cls-2" d="M975.87,185.67H912.59v-17h22.22V19.87H912.32v-17h41.32v165.8h22.23Zm-58-5.23h52.82v-6.53H948.41V8.11H917.55v6.53H940V173.91H917.82Z"/><path class="cls-3" d="M696.25,184.78H639V170.4h21.19V91.94c0-13.34-6.61-20.4-19.09-20.4-13.62,0-29.91,8.12-43.68,21.73V170.4h20.4v14.38H560V170.4h21.18V91.94c0-13.15-6.6-20.4-18.57-20.4-14.12,0-26.13,5.91-44.2,21.78V170.4h20.4v14.38H480.5V170.4h21.71V72.85H480.5V58.47h37.92V76c14.66-12.65,30.17-19.32,45-19.32,20.63,0,29.63,13.83,32.09,20.94,15.73-13.33,32.92-20.94,47.41-20.94,21,0,33.48,12.71,33.48,34V170.4h19.87Zm-54.65-2.62h52V173H673.76V90.64c0-28.33-21.58-31.39-30.86-31.39-14.35,0-31.57,7.89-47.25,21.65L594,82.39l-.45-2.22c-1.08-5.43-8.94-20.92-30.1-20.92-14.89,0-30.59,7.12-45.4,20.58l-2.19,2V61.08H483.12v9.16h21.71V173H483.12v9.15h53.09V173h-20.4V92.14l.44-.39c18.85-16.64,31.42-22.82,46.37-22.82,13.46,0,21.18,8.39,21.18,23V173H562.62v9.15h52.56V173H594.79V92.19l.38-.39c14.32-14.32,31.49-22.87,45.91-22.87,14,0,21.7,8.17,21.7,23V173H641.6Z"/><path class="cls-3" d="M744.19,186.2c-21.86,0-39-16.66-39-37.92,0-22.88,19.8-39.49,47.07-39.49,11.83,0,23.74,3.07,36.35,9.37V90.75C788.64,70,768.82,67,757,67c-26.09,0-33.44,13.82-36.2,19-.36.68-.65,1.22-.89,1.58l-.52.77-12.64-3.24.69-1.44c9.76-20.32,24.9-29,50.6-29,14.08,0,46.82,3.46,46.82,35.56V170h20.4v14.39H788.64V168C773.57,180.09,758.63,186.2,744.19,186.2Zm8.1-74.79c-25.76,0-44.46,15.5-44.46,36.87,0,19.79,16,35.3,36.36,35.3,14.49,0,29.61-6.5,44.92-19.31l2.15-1.79v19.27h31.38V172.6h-20.4V90.22c0-12.3-5.74-32.95-44.2-32.95-23.94,0-38.25,7.82-47.54,26.07l7.69,2,.3-.57c3-5.58,10.85-20.41,38.51-20.41,29.81,0,34.26,16.55,34.26,26.42v31.7l-1.91-1C776.41,114.69,764.29,111.41,752.29,111.41Zm-4.71,64.33c-16.51,0-28.5-11.22-28.5-26.68,0-17.71,14.52-30.07,35.31-30.07,12.31,0,21.79,2.92,36.21,11.15l.66.38v23.73l-.31.36C780.57,166.85,762.33,175.74,747.58,175.74Zm6.81-54.14c-19.56,0-32.7,11-32.7,27.46,0,13.94,10.89,24.06,25.89,24.06,13.91,0,31.09-8.32,41.06-19.84V132C775,124.34,766,121.6,754.39,121.6Z"/><path class="cls-3" d="M898.47,184.37h-59.1V170h21.7V72.44h-21.7V58.06h37.92V170h21.18ZM842,181.75h53.87V172.6H874.67V60.67H842v9.15h21.7V172.6H842ZM865.26,25.11a12.06,12.06,0,0,1-11.77-12A11.78,11.78,0,0,1,865.26,1.31a12.06,12.06,0,0,1,12,11.76A12.19,12.19,0,0,1,865.26,25.11Zm0-21.19a9.17,9.17,0,0,0-9.16,9.15,9.41,9.41,0,0,0,9.16,9.42,9.66,9.66,0,0,0,9.41-9.42A9.41,9.41,0,0,0,865.26,3.92Z"/><path class="cls-3" d="M974.56,184.37H913.89V170h22.23V18.57H913.63V4.18h38.7V170h22.23Zm-58-2.62H972V172.6H949.72V6.8H916.25V16h22.49V172.6H916.51Z"/><path class="cls-3" d="M310.81,184.78H252.75V170.4h22V93c0-6.45-1.89-21.45-19.35-21.45-13.31,0-30.71,8.42-44.46,21.48V170.4H231v14.38h-59.1V170.4h22.75V72.85H171.94V58.47h39V76.15c16.25-12.78,31.85-19.51,45.24-19.51,16.75,0,34.78,10.23,34.78,32.69V170.4h19.88Zm-55.44-2.62h52.82V173H288.31V89.33c0-15-9.94-30.08-32.16-30.08-13.36,0-29.17,7.14-45.72,20.63l-2.14,1.74V61.08H174.56v9.16h22.75V173H174.56v9.15h53.87V173H208.29V91.91l.4-.39C223,77.8,241.29,68.93,255.37,68.93c13.75,0,22,9,22,24.06v80h-22Z"/><path class="cls-3" d="M465.35,184.78H407.29V170.4h22V93c0-6.45-1.89-21.45-19.35-21.45C396.6,71.54,379.2,80,365.45,93V170.4h20.14v14.38H326.48V170.4h22.75V72.85H326.48V58.47h39V76.15c16.25-12.78,31.85-19.51,45.24-19.51,16.75,0,34.78,10.23,34.78,32.69V170.4h19.88Zm-55.44-2.62h52.82V173H442.86V89.33c0-15-9.95-30.08-32.17-30.08-13.36,0-29.17,7.14-45.72,20.63l-2.14,1.74V61.08H329.1v9.16h22.75V173H329.1v9.15H383V173H362.83V91.91l.4-.39c14.28-13.72,32.6-22.59,46.68-22.59,13.75,0,22,9,22,24.06v80h-22Z"/><path class="cls-1" d="M137,59.36V171.29h21.18v11.77H101.72V171.29h21.71V71.13H101.72V59.36ZM126.3,2.62A10.72,10.72,0,0,1,137,13.08,11,11,0,0,1,126.3,23.8a10.72,10.72,0,0,1-10.46-10.72A10.49,10.49,0,0,1,126.3,2.62Z"/><path class="cls-2" d="M160.82,185.67H99.11v-17h21.7V73.75H99.11v-17h40.53V168.68h21.18Zm-56.48-5.23h51.25v-6.53H134.41V62H104.34v6.54H126V173.91h-21.7Zm22-154a13.38,13.38,0,0,1-13.07-13.34A13.09,13.09,0,0,1,126.3,0a13.39,13.39,0,0,1,13.34,13.07A13.51,13.51,0,0,1,126.3,26.41Zm0-21.18a7.85,7.85,0,0,0-7.84,7.84,8.08,8.08,0,0,0,7.84,8.11,8.32,8.32,0,0,0,8.11-8.11A8.08,8.08,0,0,0,126.3,5.23Z"/><path class="cls-3" d="M159.51,184.37h-59.1V170h21.71V72.44H100.41V58.06h37.92V170h21.18ZM103,181.75H156.9V172.6H135.72V60.67H103v9.15h21.7V172.6H103ZM126.3,25.11a12.06,12.06,0,0,1-11.76-12A11.78,11.78,0,0,1,126.3,1.31a12.06,12.06,0,0,1,12,11.76A12.19,12.19,0,0,1,126.3,25.11Zm0-21.19a9.17,9.17,0,0,0-9.15,9.15,9.41,9.41,0,0,0,9.15,9.42,9.66,9.66,0,0,0,9.42-9.42A9.41,9.41,0,0,0,126.3,3.92Z"/><path class="cls-1" d="M55.29,60.35V200c0,24.32-14.64,37.66-41.06,37.66-2.35,0-6.8-.27-11.51-.79V225.13a91,91,0,0,0,11.25.78c16.74,0,27.72-6.8,27.72-29.82v-124H18.94V60.35Z"/><rect class="cls-1" x="55.29" y="60.35" width="22.87" height="11.77"/><rect class="cls-2" x="57.79" y="69.51" width="22.98" height="5.23"/><rect class="cls-2" x="75.55" y="62.96" width="5.23" height="6.55"/><rect class="cls-2" x="57.79" y="57.75" width="22.98" height="5.22"/><path class="cls-2" d="M57.79,63V57.73H16.21v17H39V196.07c0,24-12.69,27.2-25.1,27.2a87,87,0,0,1-11-.77L0,222.18v17l2.33.26c5,.55,9.51.8,11.79.8,27.76,0,43.67-14.68,43.67-40.28V69.52H52.58v0h0V200c0,22.93-13.29,35-38.44,35-1.78,0-5.07-.17-8.89-.53V228a78.4,78.4,0,0,0,8.63.48c20.69,0,30.33-10.31,30.33-32.43V69.5H21.44V63H57.79Z"/><polygon class="cls-3" points="56.48 59.04 56.48 61.66 58.83 61.66 60.57 61.66 77.12 61.66 77.12 70.82 60.57 70.82 58.83 70.82 56.48 70.82 56.48 73.44 79.47 73.44 79.47 59.04 56.48 59.04"/><path class="cls-3" d="M53.87,70.81V200c0,23.45-14.12,36.36-39.75,36.36-2,0-5.83-.21-10.2-.66v-9.13a82.28,82.28,0,0,0,9.94.63c19.8,0,29-9.89,29-31.12V70.81H20.14V61.66H56.49V59h-39V73.42H40.27V196.07c0,20-7.9,28.51-26.41,28.51a89,89,0,0,1-11.1-.78l-1.45-.16V238l1.16.13c4.94.55,9.41.79,11.65.79,27.32,0,42.37-13.84,42.37-39V70.81Z"/></g></g></svg>