<?xml version="1.0" encoding="UTF-8"?>
<svg width="16px" height="19px" viewBox="0 0 16 19" version="1.1" xmlns="http://www.w3.org/2000/svg" xmlns:xlink="http://www.w3.org/1999/xlink">
    <!-- Generator: Sketch 52.2 (67145) - http://www.bohemiancoding.com/sketch -->
    <title>Icon</title>
    <desc>Created with Sketch.</desc>
    <g id="Two-Tone-Icons" stroke="none" stroke-width="1" fill="none" fill-rule="evenodd">
        <g transform="translate(-795.000000, -148.000000)" fill="#0096FF" id="Upload">
            <g transform="translate(760.000000, 130.000000)">
                <g id="Icon" transform="translate(43.000000, 27.500000) rotate(-90.000000) translate(-43.000000, -27.500000) translate(33.500000, 19.500000)">
                    <path d="M18.5,11 C18.776,11 19,11.224 19,11.5 L19,15 C19,15.552 18.552,16 18,16 L1,16 C0.448,16 0,15.552 0,15 L0,11.5 C0,11.224 0.224,11 0.5,11 C0.776,11 1,11.224 1,11.5 L1,15 L18,15 L18,11.5 C18,11.224 18.224,11 18.5,11 Z M5.64536841,4.88286293 C5.49787724,5.02911369 5.25810954,5.02911369 5.11061838,4.88286293 C4.96312721,4.73661217 4.96312721,4.49886093 5.11061838,4.35261017 L9.38937498,0.109838071 C9.53686615,-0.0364126904 9.77663385,-0.0364126904 9.92412502,0.109838071 L14.2028816,4.35261017 C14.3503728,4.49886093 14.3503728,4.73661217 14.2028816,4.88286293 C14.0546341,5.02911369 13.8156228,5.02911369 13.6681316,4.88286293 L10.0345543,1.28059417 L10.0345543,11.625398 C10.0345543,11.8323991 9.86512855,12.0004 9.65637182,12.0004 C9.44761509,12.0004 9.27818933,11.8323991 9.27818933,11.625398 L9.27818933,1.28059417 L5.64536841,4.88286293 Z" id="Outline"></path>
                </g>
            </g>
        </g>
    </g>
</svg>