<?xml version="1.0" encoding="utf-8"?>
<!-- Generator: Adobe Illustrator 24.0.3, SVG Export Plug-In . SVG Version: 6.00 Build 0)  -->
<svg version="1.1" id="Layer_1" xmlns="http://www.w3.org/2000/svg" xmlns:xlink="http://www.w3.org/1999/xlink" x="0px" y="0px"
	 viewBox="0 0 975.9 240.3" style="enable-background:new 0 0 975.9 240.3;" xml:space="preserve">
<style type="text/css">
	.st0{fill:#FFFFFF;}
	.st1{fill:#E9D200;}
	.st2{fill:#888888;}
</style>
<title>Asset 1</title>
<g id="Layer_2_1_">
	<g id="Layer_1-2">
		<path class="st0" d="M464.2,113.8c2.3,0,3.4,1.6,3.4,3.2v8.4h2v1.2H464v-1.2h2.3v-8.1c0-1.3-0.6-2.3-2.1-2.3
			c-1.4,0-3.3,0.9-4.7,2.3v8.1h2.1v1.2h-5.8v-1.2h2.3v-10.3h-2.3v-1.2h3.7v2C461.2,114.5,462.8,113.8,464.2,113.8z"/>
		<path class="st1" d="M469.9,126.9h-6.2v-1.7h2.3v-7.8c0-0.8-0.2-2.1-1.8-2.1c-1.3,0-3,0.8-4.4,2.1v7.7h2.1v1.7h-6.3v-1.7h2.3v-9.7
			h-2.3v-1.7h4.3v1.7c1.6-1.2,3.2-1.9,4.5-1.9c1.8,0,3.7,1.1,3.7,3.5v8.2h2V126.9z M464.2,126.3h5.1v-0.7h-2V117
			c0-1.5-1-2.9-3.2-2.9c-1.3,0-3,0.7-4.6,2.1l-0.4,0.4v-2.3H456v0.7h2.3v10.8H456v0.7h5.3v-0.7h-2.1v-8.5l0.1-0.1
			c1.5-1.4,3.4-2.4,4.9-2.4c1.5,0,2.4,1,2.4,2.6v8.3h-2.3L464.2,126.3z"/>
		<path class="st0" d="M480,113.8c2.3,0,3.4,1.6,3.4,3.2v8.4h2v1.2h-5.7v-1.2h2.3v-8.1c0-1.3-0.6-2.3-2.1-2.3
			c-1.4,0-3.3,0.9-4.7,2.3v8.1h2.1v1.2h-5.8v-1.2h2.3v-10.3h-2.3v-1.2h3.7v2C477,114.5,478.7,113.8,480,113.8z"/>
		<path class="st1" d="M485.8,126.9h-6.2v-1.7h2.3v-7.8c0-0.8-0.2-2.1-1.8-2.1c-1.3,0-3,0.8-4.4,2.1v7.7h2.1v1.7h-6.3v-1.7h2.3v-9.7
			h-2.3v-1.7h4.3v1.7c1.6-1.2,3.2-1.9,4.5-1.9c1.8,0,3.7,1.1,3.7,3.5v8.2h2V126.9z M480.1,126.3h5.1v-0.7h-2V117
			c0-1.5-1-2.9-3.2-2.9c-1.3,0-3,0.7-4.6,2.1l-0.4,0.4v-2.3h-3.2v0.7h2.3v10.8h-2.3v0.7h5.3v-0.7H475v-8.5l0.1-0.1
			c1.5-1.4,3.4-2.4,4.9-2.4c1.5,0,2.4,1,2.4,2.6v8.3h-2.3L480.1,126.3z"/>
		<path class="st1" d="M495.7,113.8c2.3,0,3.1,1.7,3.2,2.3c1.5-1.3,3.3-2.3,4.9-2.3c2.4,0,3.3,1.6,3.3,3.3v8.3h2v1.2h-5.6v-1.2h2.2
			v-8.2c0-1.4-0.7-2.2-2.1-2.2c-1.6,0-3.3,1-4.6,2.3v8.1h2.1v1.2h-5.7v-1.2h2.2v-8.2c0-1.4-0.7-2.2-2-2.2c-1.6,0-2.8,0.7-4.7,2.3
			v8.1h2.1v1.2h-5.7v-1.2h2.2v-10.3h-2.2v-1.2h3.6v2C492.4,114.6,494.1,113.8,495.7,113.8z"/>
		<path class="st1" d="M509.4,126.9h-6.1v-1.7h2.2v-7.9c0-1.3-0.6-2-1.8-2c-1.3,0-3,0.8-4.3,2.2v7.7h2.1v1.7h-6.2v-1.7h2.2v-7.9
			c0-0.9-0.3-2-1.8-2c-1.4,0-2.6,0.6-4.4,2.2v7.7h2.1v1.7H487v-1.7h2.2v-9.7H487v-1.7h4.2v1.6c1.5-1.2,3-1.8,4.5-1.8
			c2,0,3,1.3,3.3,2.1c1.6-1.3,3.3-2.1,4.8-2.1c2.2,0,3.6,1.4,3.6,3.6v8h2V126.9z M503.8,126.3h5.1v-0.7h-2v-8.6c0-0.9-0.3-3.1-3-3.1
			c-1.4,0-3.2,0.8-4.8,2.2l-0.3,0.3l-0.1-0.5c-0.1-0.5-0.9-2-3-2c-1.5,0-3.1,0.7-4.6,2.1l-0.4,0.4v-2.3h-3.1v0.7h2.2v10.8h-2.2v0.7
			h5.2v-0.7h-2.1v-8.5l0.1-0.1c2-1.7,3.3-2.4,4.8-2.4c1.5,0,2.3,0.9,2.3,2.5v8.4h-2.2v0.7h5.1v-0.7h-2.1v-8.5l0.1-0.1
			c1.5-1.5,3.3-2.4,4.8-2.4c1.5,0,2.4,0.9,2.4,2.5v8.4h-2.2V126.3z"/>
		<path class="st1" d="M515.6,113.5c3.8,0,4.7,2,4.7,3.5v8.3h2.1v1.2h-3.5v-1.8c-1.3,1.1-2.9,2-4.7,2c-2.2,0-3.9-1.7-3.9-3.8
			c0-2.3,2-3.9,4.7-3.9c1.4,0,2.7,0.4,3.9,1v-3c0-1.1-0.6-2.6-3.4-2.6c-3.1,0-3.7,1.8-3.9,2.2l-1-0.3
			C511.5,114.4,513.1,113.5,515.6,113.5z M511.8,123.1c0,1.5,1.2,2.6,2.8,2.6c1.5,0,3.3-0.9,4.3-2.1v-2.3c-1.5-0.9-2.4-1.1-3.6-1.1
			C513.1,120.1,511.8,121.4,511.8,123.1L511.8,123.1z"/>
		<path class="st1" d="M514.2,127c-2.3,0-4.1-1.8-4.1-4c0-2.4,2.1-4.2,5-4.2c1.2,0,2.4,0.3,3.6,0.9v-2.6c0-1.1-0.5-2.3-3.1-2.3
			c-2.6,0-3.3,1.4-3.6,1.9c0,0.1-0.1,0.1-0.1,0.2l-0.1,0.2l-1.5-0.4l0.1-0.3c1-2.1,2.6-3,5.3-3c4.5,0,4.9,2.6,4.9,3.8v8h2.1v1.7h-4
			v-1.5C517.1,126.4,515.6,127,514.2,127z M515,119.4c-2.6,0-4.4,1.5-4.4,3.6c0,2,1.6,3.5,3.6,3.5c1.5,0,3-0.7,4.5-1.9l0.4-0.4v2.1
			h2.9v-0.7H520v-8.6c0-1.2-0.6-3.2-4.4-3.2c-2.4,0-3.7,0.7-4.7,2.4l0.5,0.1c0.3-0.6,1.2-2.1,4-2.1c1.1,0,3.6,0.3,3.6,2.8v3.5
			l-0.4-0.2C517.5,119.7,516.2,119.4,515,119.4z M514.5,125.9c-1.8,0-3.1-1.2-3.1-2.9c0-1.9,1.5-3.2,3.8-3.2c1.3,0,2.3,0.3,3.8,1.2
			l0.1,0.1v2.6l-0.1,0.1C518,125,516.1,125.9,514.5,125.9z M515.2,120.4c-1.9,0-3.2,1.1-3.2,2.7c0,1.4,1.1,2.3,2.5,2.3
			c1.4,0,3.1-0.8,4.1-1.9v-2C517.3,120.7,516.4,120.4,515.2,120.4L515.2,120.4z"/>
		<path class="st1" d="M527.7,113.9v11.5h2.2v1.2h-5.8v-1.2h2.2v-10.3h-2.2v-1.2H527.7z M526.6,108.1c0.6,0,1.1,0.5,1.1,1.1
			c0,0.6-0.5,1.1-1.1,1.1c-0.6,0-1.1-0.5-1.1-1.1C525.5,108.6,526,108.1,526.6,108.1z"/>
		<path class="st1" d="M530.1,126.8h-6.3v-1.7h2.2v-9.7h-2.2v-1.7h4.2v11.5h2.2V126.8z M524.3,126.3h5.3v-0.7h-2.2v-11.5h-3.1v0.7
			h2.2v10.8h-2.2L524.3,126.3z M526.6,110.5c-0.7,0-1.3-0.6-1.3-1.4c0-0.7,0.6-1.3,1.3-1.3c0.7,0,1.3,0.6,1.4,1.3
			C528,109.9,527.4,110.5,526.6,110.5L526.6,110.5z M526.6,108.3c-0.4,0-0.8,0.4-0.8,0.8c0,0.4,0.4,0.8,0.8,0.8
			c0.5,0,0.8-0.4,0.8-0.8C527.4,108.7,527.1,108.3,526.6,108.3L526.6,108.3z"/>
		<path class="st1" d="M535.4,108.4v17h2.3v1.2h-5.9v-1.2h2.3v-15.8h-2.3v-1.2H535.4z"/>
		<path class="st1" d="M537.9,126.8h-6.5v-1.7h2.3v-15.2h-2.3v-1.7h4.2v17h2.3V126.8z M532,126.3h5.4v-0.7h-2.3v-17H532v0.7h2.3
			v16.3H532L532,126.3z"/>
		<path class="st2" d="M509.3,126.7h-5.9v-1.5h2.2v-8c0-1.4-0.7-2.1-2-2.1c-1.4,0-3.1,0.8-4.5,2.2v7.9h2.1v1.5h-5.9v-1.5h2.2v-8
			c0-1.3-0.7-2.1-1.9-2.1c-1.4,0-2.7,0.6-4.5,2.2v7.9h2.1v1.5h-6v-1.5h2.2v-10h-2.2v-1.5h3.9v1.8c1.5-1.3,3.1-2,4.6-2
			c2.1,0,3,1.4,3.3,2.1c1.6-1.4,3.4-2.1,4.9-2.1c2.2,0,3.4,1.3,3.4,3.5v8.2h2L509.3,126.7z M503.7,126.5h5.3v-0.9h-2v-8.4
			c0-2.9-2.2-3.2-3.2-3.2c-1.5,0-3.2,0.8-4.8,2.2l-0.2,0.2l0-0.2c-0.1-0.6-0.9-2.1-3.1-2.1c-1.5,0-3.1,0.7-4.7,2.1l-0.2,0.2v-2.1
			h-3.4v0.9h2.2v10.5h-2.2v0.9h5.4v-0.9h-2.1v-8.3l0,0c1.9-1.7,3.2-2.3,4.8-2.3c1.4,0,2.2,0.9,2.2,2.4v8.3h-2.2v0.9h5.4v-0.9h-2.1
			v-8.3l0,0c1.5-1.5,3.2-2.3,4.7-2.3c1.4,0,2.2,0.8,2.2,2.4v8.3h-2.2V126.5z"/>
		<path class="st2" d="M514.2,126.9c-2.2,0-4-1.7-4-3.9c0-2.3,2-4,4.8-4c1.2,0,2.4,0.3,3.7,1v-2.8c0-2.1-2-2.4-3.2-2.4
			c-2.7,0-3.4,1.4-3.7,1.9c0,0.1-0.1,0.1-0.1,0.2l-0.1,0.1l-1.3-0.3l0.1-0.1c1-2.1,2.6-3,5.2-3c1.4,0,4.8,0.4,4.8,3.6v8.2h2.1v1.5
			h-3.8V125C517.2,126.3,515.7,126.9,514.2,126.9z M515,119.2c-2.6,0-4.6,1.6-4.6,3.8c0,2,1.6,3.6,3.7,3.6c1.5,0,3-0.7,4.6-2
			l0.2-0.2v2h3.2v-0.9h-2.1v-8.4c0-1.3-0.6-3.4-4.5-3.4c-2.5,0-3.9,0.8-4.9,2.7l0.8,0.2l0-0.1c0.3-0.6,1.1-2.1,3.9-2.1
			c3.1,0,3.5,1.7,3.5,2.7v3.2l-0.2-0.1C517.5,119.6,516.3,119.2,515,119.2z M514.5,125.8c-1.7,0-2.9-1.1-2.9-2.7
			c0-1.8,1.5-3.1,3.6-3.1c1.3,0,2.2,0.3,3.7,1.1l0.1,0v2.4l0,0C517.9,124.9,516.1,125.8,514.5,125.8L514.5,125.8z M515.2,120.3
			c-2,0-3.4,1.1-3.4,2.8c0,1.4,1.1,2.5,2.7,2.5c1.4,0,3.2-0.9,4.2-2v-2.2C517.4,120.6,516.4,120.3,515.2,120.3L515.2,120.3z"/>
		<path class="st2" d="M530,126.7h-6.1v-1.5h2.2v-10h-2.2v-1.5h3.9v11.5h2.2V126.7z M524.2,126.4h5.5v-0.9h-2.2V114h-3.3v0.9h2.2
			v10.5h-2.2V126.4z M526.6,110.4c-0.7,0-1.2-0.6-1.2-1.2c0-0.7,0.5-1.2,1.2-1.2c0,0,0,0,0,0c0.7,0,1.2,0.5,1.2,1.2
			C527.8,109.8,527.3,110.4,526.6,110.4z M526.6,108.2c-0.5,0-0.9,0.4-0.9,0.9c0,0.5,0.4,1,0.9,1c0.5,0,1-0.4,1-1
			C527.6,108.6,527.1,108.2,526.6,108.2z"/>
		<path class="st2" d="M537.8,126.7h-6.2v-1.5h2.3v-15.5h-2.3v-1.5h4v17h2.3V126.7z M531.9,126.4h5.7v-0.9h-2.3v-17h-3.4v0.9h2.3v16
			h-2.3L531.9,126.4z"/>
		<path class="st2" d="M469.8,126.7h-5.9v-1.5h2.3v-7.9c0-0.7-0.2-2.2-2-2.2c-1.4,0-3.1,0.9-4.6,2.2v7.9h2.1v1.5h-6.1v-1.5h2.3v-10
			h-2.3v-1.5h4v1.8c1.7-1.3,3.3-2,4.6-2c1.7,0,3.6,1,3.6,3.3v8.3h2L469.8,126.7z M464.1,126.5h5.4v-0.9h-2V117c0-1.5-1-3.1-3.3-3.1
			c-1.4,0-3,0.7-4.7,2.1l-0.2,0.2v-2.1h-3.5v0.9h2.3v10.5h-2.3v0.9h5.5v-0.9h-2.1v-8.3l0,0c1.5-1.4,3.3-2.3,4.8-2.3
			c1.4,0,2.3,0.9,2.3,2.5v8.2h-2.3V126.5z"/>
		<path class="st2" d="M485.6,126.7h-5.9v-1.5h2.3v-7.9c0-0.7-0.2-2.2-2-2.2c-1.4,0-3.2,0.9-4.6,2.2v7.9h2.1v1.5h-6.1v-1.5h2.3v-10
			h-2.3v-1.5h4v1.8c1.7-1.3,3.3-2,4.6-2c1.7,0,3.6,1,3.6,3.3v8.3h2L485.6,126.7z M479.9,126.5h5.4v-0.9h-2V117c0-1.5-1-3.1-3.3-3.1
			c-1.4,0-3,0.7-4.7,2.1l-0.2,0.2v-2.1h-3.5v0.9h2.3v10.5h-2.3v0.9h5.5v-0.9h-2.1v-8.3l0,0c1.5-1.4,3.3-2.3,4.8-2.3
			c1.4,0,2.3,0.9,2.3,2.5v8.2h-2.3V126.5z"/>
		<path class="st0" d="M452,113.9v11.5h2.2v1.2h-5.8v-1.2h2.2v-10.3h-2.2v-1.2H452z M450.9,108.1c0.6,0,1.1,0.5,1.1,1.1
			c0,0.6-0.5,1.1-1.1,1.1c-0.6,0-1.1-0.5-1.1-1.1C449.8,108.6,450.3,108.1,450.9,108.1z"/>
		<path class="st1" d="M454.4,126.8h-6.3v-1.7h2.2v-9.7h-2.2v-1.7h4.2v11.5h2.2V126.8z M448.6,126.3h5.3v-0.7h-2.2v-11.5h-3.1v0.7
			h2.2v10.8h-2.2L448.6,126.3z M450.9,110.5c-0.7,0-1.3-0.6-1.3-1.4c0-0.7,0.6-1.3,1.3-1.3c0.7,0,1.3,0.6,1.4,1.3
			C452.2,109.9,451.6,110.5,450.9,110.5L450.9,110.5z M450.9,108.3c-0.4,0-0.8,0.4-0.8,0.8c0,0.4,0.4,0.8,0.8,0.8
			c0.5,0,0.8-0.4,0.8-0.8C451.7,108.7,451.3,108.3,450.9,108.3L450.9,108.3z"/>
		<path class="st2" d="M454.3,126.7h-6.1v-1.5h2.2v-10h-2.2v-1.5h3.9v11.5h2.2V126.7z M448.5,126.4h5.5v-0.9h-2.2V114h-3.4v0.9h2.2
			v10.5h-2.2V126.4z M450.9,110.4c-0.7,0-1.2-0.6-1.2-1.2c0-0.7,0.5-1.2,1.2-1.2c0,0,0,0,0,0c0.7,0,1.2,0.5,1.2,1.2
			C452.1,109.8,451.6,110.4,450.9,110.4z M450.9,108.2c-0.5,0-0.9,0.4-0.9,0.9c0,0.5,0.4,1,0.9,1c0.5,0,1-0.4,1-1
			C451.8,108.6,451.4,108.2,450.9,108.2z"/>
		<path class="st0" d="M443.6,114v14.3c0,2.5-1.5,3.9-4.2,3.9c-0.2,0-0.7,0-1.2-0.1v-1.2c0.4,0.1,0.8,0.1,1.2,0.1
			c1.7,0,2.8-0.7,2.8-3.1v-12.7h-2.3V114H443.6z"/>
		<rect x="443.6" y="114" class="st0" width="2.3" height="1.2"/>
		<rect x="443.9" y="114.9" class="st1" width="2.4" height="0.5"/>
		<rect x="445.7" y="114.3" class="st1" width="0.5" height="0.7"/>
		<rect x="443.9" y="113.7" class="st1" width="2.4" height="0.5"/>
		<path class="st1" d="M443.9,114.3v-0.5h-4.3v1.7h2.3v12.4c0,2.5-1.3,2.8-2.6,2.8c-0.4,0-0.8,0-1.1-0.1l-0.3,0v1.7l0.2,0
			c0.5,0.1,1,0.1,1.2,0.1c2.8,0,4.5-1.5,4.5-4.1v-13.4h-0.5l0,0l0,0v13.4c0,2.3-1.4,3.6-3.9,3.6c-0.2,0-0.5,0-0.9-0.1v-0.7
			c0.3,0,0.6,0,0.9,0c2.1,0,3.1-1.1,3.1-3.3v-13h-2.3v-0.7H443.9z"/>
		<polygon class="st2" points="443.7,113.9 443.7,114.1 444,114.1 444.1,114.1 445.8,114.1 445.8,115.1 444.1,115.1 444,115.1 
			443.7,115.1 443.7,115.3 446.1,115.3 446.1,113.9 		"/>
		<path class="st2" d="M443.5,115.1v13.2c0,2.4-1.4,3.7-4.1,3.7c-0.2,0-0.6,0-1-0.1V131c0.3,0,0.7,0.1,1,0.1c2,0,3-1,3-3.2v-12.8
			H440v-0.9h3.7v-0.3h-4v1.5h2.3v12.6c0,2-0.8,2.9-2.7,2.9c-0.4,0-0.8,0-1.1-0.1l-0.1,0v1.5l0.1,0c0.5,0.1,1,0.1,1.2,0.1
			c2.8,0,4.3-1.4,4.3-4v-13.2H443.5z"/>
	</g>
</g>
</svg>
