<?xml version="1.0" encoding="UTF-8"?>
<svg width="141px" height="26px" viewBox="0 0 141 26" version="1.1" xmlns="http://www.w3.org/2000/svg" xmlns:xlink="http://www.w3.org/1999/xlink">
    <!-- Generator: Sketch 50.2 (55047) - http://www.bohemiancoding.com/sketch -->
    <title>burnermail logo black</title>
    <desc>Created with Sketch.</desc>
    <defs></defs>
    <g id="burnermail-logo-black" stroke="none" stroke-width="1" fill="none" fill-rule="evenodd">
        <path d="M49.0753544,9.25 C49.6774161,9.25 50.2222737,9.36735994 50.7099437,9.60208333 C51.1976136,9.83680673 51.6130299,10.1497666 51.9562051,10.5409722 C52.2993802,10.9321779 52.5703039,11.3835623 52.7689843,11.8951389 C52.9676646,12.4067155 53.0790444,12.9393491 53.1031268,13.4930556 C53.1151681,13.673612 53.1211886,13.8842581 53.1211886,14.125 C53.1211886,14.3657419 53.1151681,14.576388 53.1031268,14.7569444 C53.0790444,15.3106509 52.9676646,15.8432845 52.7689843,16.3548611 C52.5703039,16.8664377 52.2993802,17.3178221 51.9562051,17.7090278 C51.6130299,18.1002334 51.1976136,18.4131933 50.7099437,18.6479167 C50.2222737,18.8826401 49.6774161,19 49.0753544,19 C48.7020762,19 48.367937,18.9638893 48.0729268,18.8916667 C47.7779166,18.8194441 47.5190339,18.7291672 47.2962711,18.6208333 C47.0735083,18.5124995 46.8838617,18.3951395 46.7273257,18.26875 C46.5707897,18.1423605 46.4443586,18.0250005 46.3480287,17.9166667 L46.3480287,18.3319444 C46.3480287,18.4643525 46.2998645,18.5787032 46.2035347,18.675 C46.1072048,18.7712968 45.9928148,18.8194444 45.8603612,18.8194444 L44.4876675,18.8194444 C44.3552139,18.8194444 44.2408239,18.7712968 44.1444941,18.675 C44.0481642,18.5787032 44,18.4643525 44,18.3319444 L44,6.4875 C44,6.35509193 44.0481642,6.24074122 44.1444941,6.14444444 C44.2408239,6.04814767 44.3552139,6 44.4876675,6 L45.8603612,6 C45.9928148,6 46.1072048,6.04814767 46.2035347,6.14444444 C46.2998645,6.24074122 46.3480287,6.35509193 46.3480287,6.4875 L46.3480287,10.3333333 C46.4443586,10.2249995 46.5707897,10.1076395 46.7273257,9.98125 C46.8838617,9.85486048 47.0735083,9.73750054 47.2962711,9.62916667 C47.5190339,9.52083279 47.7779166,9.43055592 48.0729268,9.35833333 C48.367937,9.28611075 48.7020762,9.25 49.0753544,9.25 Z M50.7550981,13.6194444 C50.6828507,12.8370331 50.4420296,12.2743073 50.0326277,11.93125 C49.6232258,11.5881927 49.1235221,11.4166667 48.5335017,11.4166667 C47.9434812,11.4166667 47.4467878,11.5972204 47.0434065,11.9583333 C46.6400252,12.3194463 46.4082349,12.8129598 46.3480287,13.4388889 C46.3239463,13.6194453 46.3119052,13.8481468 46.3119052,14.125 C46.3119052,14.4018532 46.3239463,14.6305547 46.3480287,14.8111111 C46.4082349,15.4611144 46.6400252,15.9606464 47.0434065,16.3097222 C47.4467878,16.658798 47.9434812,16.8333333 48.5335017,16.8333333 C49.1235221,16.8333333 49.6232258,16.6618073 50.0326277,16.31875 C50.4420296,15.9756927 50.6828507,15.4129669 50.7550981,14.6305556 C50.7912218,14.2935168 50.7912218,13.9564832 50.7550981,13.6194444 Z M55.0899204,9.91805556 C55.0899204,9.78564749 55.1380846,9.67129678 55.2344144,9.575 C55.3307443,9.47870322 55.4451343,9.43055556 55.5775879,9.43055556 L56.9502816,9.43055556 C57.0827352,9.43055556 57.1971252,9.47870322 57.293455,9.575 C57.3897849,9.67129678 57.4379491,9.78564749 57.4379491,9.91805556 L57.4379491,14.5041667 C57.4379491,15.2263925 57.5914725,15.8041645 57.898524,16.2375 C58.2055754,16.6708355 58.7082894,16.8875 59.4066809,16.8875 C60.0448663,16.8875 60.5325289,16.6708355 60.8696834,16.2375 C61.206838,15.8041645 61.3754127,15.2263925 61.3754127,14.5041667 L61.3754127,9.91805556 C61.3754127,9.78564749 61.4235769,9.67129678 61.5199068,9.575 C61.6162366,9.47870322 61.7306266,9.43055556 61.8630802,9.43055556 L63.2357739,9.43055556 C63.3682275,9.43055556 63.4826175,9.47870322 63.5789474,9.575 C63.6752772,9.67129678 63.7234414,9.78564749 63.7234414,9.91805556 L63.7234414,18.3319444 C63.7234414,18.4643525 63.6752772,18.5787032 63.5789474,18.675 C63.4826175,18.7712968 63.3682275,18.8194444 63.2357739,18.8194444 L61.8630802,18.8194444 C61.7306266,18.8194444 61.6162366,18.7712968 61.5199068,18.675 C61.4235769,18.5787032 61.3754127,18.4643525 61.3754127,18.3319444 L61.3754127,17.9166667 C61.0984643,18.1935199 60.7552943,18.4432859 60.3458924,18.6659722 C59.9364905,18.8886585 59.4428073,19 58.8648281,19 C58.1303129,19 57.5222397,18.8856493 57.0405904,18.6569444 C56.5589411,18.4282396 56.1736274,18.1212982 55.8846378,17.7361111 C55.5956482,17.350924 55.3909503,16.9025489 55.270538,16.3909722 C55.1501256,15.8793956 55.0899204,15.3407436 55.0899204,14.775 L55.0899204,9.91805556 Z M70.6049718,11.5972222 C69.8824978,11.5972222 69.3617223,11.7567114 69.0426296,12.0756944 C68.723537,12.3946775 68.563993,12.9152742 68.563993,13.6375 L68.563993,18.3319444 C68.563993,18.4643525 68.5158288,18.5787032 68.4194989,18.675 C68.3231691,18.7712968 68.2087791,18.8194444 68.0763255,18.8194444 L66.7036318,18.8194444 C66.5711782,18.8194444 66.4567882,18.7712968 66.3604583,18.675 C66.2641285,18.5787032 66.2159643,18.4643525 66.2159643,18.3319444 L66.2159643,9.91805556 C66.2159643,9.78564749 66.2641285,9.67129678 66.3604583,9.575 C66.4567882,9.47870322 66.5711782,9.43055556 66.7036318,9.43055556 L68.0763255,9.43055556 C68.2087791,9.43055556 68.3231691,9.47870322 68.4194989,9.575 C68.5158288,9.67129678 68.563993,9.78564749 68.563993,9.91805556 L68.563993,10.3333333 C68.8770651,10.044443 69.2112043,9.82176004 69.5664207,9.66527778 C69.921637,9.50879551 70.3882278,9.43055556 70.966207,9.43055556 L71.7789862,9.43055556 C71.9114398,9.43055556 72.0258298,9.47870322 72.1221596,9.575 C72.2184895,9.67129678 72.2666537,9.78564749 72.2666537,9.91805556 L72.2666537,11.1097222 C72.2666537,11.2421303 72.2184895,11.356481 72.1221596,11.4527778 C72.0258298,11.5490746 71.9114398,11.5972222 71.7789862,11.5972222 L70.6049718,11.5972222 Z M82.5799184,18.3319444 C82.5799184,18.4643525 82.5317542,18.5787032 82.4354244,18.675 C82.3390945,18.7712968 82.2247045,18.8194444 82.0922509,18.8194444 L80.7195572,18.8194444 C80.5871036,18.8194444 80.4727136,18.7712968 80.3763838,18.675 C80.2800539,18.5787032 80.2318897,18.4643525 80.2318897,18.3319444 L80.2318897,13.7458333 C80.2318897,13.0236075 80.063315,12.4458355 79.7261604,12.0125 C79.3890059,11.5791645 78.8712406,11.3625 78.1728491,11.3625 C77.5346637,11.3625 77.0319498,11.5791645 76.6646922,12.0125 C76.2974346,12.4458355 76.1138085,13.0236075 76.1138085,13.7458333 L76.1138085,18.3319444 C76.1138085,18.4643525 76.0656443,18.5787032 75.9693144,18.675 C75.8729846,18.7712968 75.7585946,18.8194444 75.626141,18.8194444 L74.2534473,18.8194444 C74.1209937,18.8194444 74.0066037,18.7712968 73.9102738,18.675 C73.813944,18.5787032 73.7657798,18.4643525 73.7657798,18.3319444 L73.7657798,9.91805556 C73.7657798,9.78564749 73.813944,9.67129678 73.9102738,9.575 C74.0066037,9.47870322 74.1209937,9.43055556 74.2534473,9.43055556 L75.626141,9.43055556 C75.7585946,9.43055556 75.8729846,9.47870322 75.9693144,9.575 C76.0656443,9.67129678 76.1138085,9.78564749 76.1138085,9.91805556 L76.1138085,10.3333333 C76.4268806,10.0203688 76.7941327,9.7615751 77.2155758,9.55694444 C77.637019,9.35231379 78.1367227,9.25 78.7147019,9.25 C79.4492171,9.25 80.0633108,9.36435071 80.5570014,9.59305556 C81.0506919,9.8217604 81.4480467,10.1287018 81.7490775,10.5138889 C82.0501083,10.899076 82.263837,11.3474511 82.39027,11.8590278 C82.5167029,12.3706044 82.5799184,12.9092564 82.5799184,13.475 L82.5799184,18.3319444 Z M84.5125267,14.125 C84.5125267,13.4509226 84.6148757,12.8159752 84.8195766,12.2201389 C85.0242776,11.6243026 85.3192834,11.1067152 85.7046028,10.6673611 C86.0899223,10.2280071 86.5565131,9.88194571 87.1043892,9.62916667 C87.6522653,9.37638762 88.2633487,9.25 88.9376578,9.25 C89.6119669,9.25 90.2230503,9.3733784 90.7709264,9.62013889 C91.3188025,9.86689938 91.7853933,10.1979146 92.1707128,10.6131944 C92.5560322,11.0284743 92.8540483,11.5159694 93.0647699,12.0756944 C93.2754914,12.6354195 93.3808507,13.2222192 93.3808507,13.8361111 L93.3808507,14.6486111 C93.3808507,14.7810192 93.3326864,14.8953699 93.2363566,14.9916667 C93.1400267,15.0879634 93.0256367,15.1361111 92.8931831,15.1361111 L86.8605554,15.1361111 C86.8605554,15.4129643 86.9177504,15.6567119 87.0321422,15.8673611 C87.1465339,16.0780103 87.3000573,16.2555548 87.492717,16.4 C87.6853768,16.5444452 87.9081362,16.6527774 88.1610021,16.725 C88.413868,16.7972226 88.6727507,16.8333333 88.9376578,16.8333333 C89.3229773,16.8333333 89.6360446,16.7942134 89.8768693,16.7159722 C90.117694,16.6377311 90.3163713,16.5384265 90.4729074,16.4180556 C90.6053609,16.3217588 90.7137304,16.2555557 90.798019,16.2194444 C90.8823077,16.1833332 90.9966977,16.1652778 91.1411925,16.1652778 L92.5861332,16.1652778 C92.7185868,16.1652778 92.8359871,16.2134254 92.9383375,16.3097222 C93.040688,16.406019 93.085842,16.5203697 93.0738007,16.6527778 C93.0617595,16.8212971 92.9684413,17.0379616 92.7938435,17.3027778 C92.6192456,17.5675939 92.3573527,17.8263876 92.0081569,18.0791667 C91.6589612,18.3319457 91.2284935,18.5486102 90.7167411,18.7291667 C90.2049887,18.9097231 89.6119669,19 88.9376578,19 C88.2633487,19 87.6522653,18.8826401 87.1043892,18.6479167 C86.5565131,18.4131933 86.0899223,18.0791688 85.7046028,17.6458333 C85.3192834,17.2124978 85.0242776,16.6979196 84.8195766,16.1020833 C84.6148757,15.506247 84.5125267,14.8472258 84.5125267,14.125 Z M88.9376578,11.4166667 C88.588462,11.4166667 88.290446,11.4678236 88.0436007,11.5701389 C87.7967554,11.6724542 87.5890473,11.8048603 87.42047,11.9673611 C87.2518927,12.1298619 87.1224514,12.3104157 87.0321422,12.5090278 C86.9418329,12.7076399 86.8846379,12.8972213 86.8605554,13.0777778 L90.9425131,13.0777778 C90.9184306,12.8972213 90.8732767,12.7076399 90.8070499,12.5090278 C90.7408231,12.3104157 90.6324537,12.1298619 90.4819382,11.9673611 C90.3314228,11.8048603 90.1327455,11.6724542 89.8859002,11.5701389 C89.6390549,11.4678236 89.3229773,11.4166667 88.9376578,11.4166667 Z M99.73859,11.5972222 C99.016116,11.5972222 98.4953405,11.7567114 98.1762478,12.0756944 C97.8571551,12.3946775 97.6976112,12.9152742 97.6976112,13.6375 L97.6976112,18.3319444 C97.6976112,18.4643525 97.649447,18.5787032 97.5531171,18.675 C97.4567872,18.7712968 97.3423972,18.8194444 97.2099437,18.8194444 L95.83725,18.8194444 C95.7047964,18.8194444 95.5904064,18.7712968 95.4940765,18.675 C95.3977467,18.5787032 95.3495824,18.4643525 95.3495824,18.3319444 L95.3495824,9.91805556 C95.3495824,9.78564749 95.3977467,9.67129678 95.4940765,9.575 C95.5904064,9.47870322 95.7047964,9.43055556 95.83725,9.43055556 L97.2099437,9.43055556 C97.3423972,9.43055556 97.4567872,9.47870322 97.5531171,9.575 C97.649447,9.67129678 97.6976112,9.78564749 97.6976112,9.91805556 L97.6976112,10.3333333 C98.0106833,10.044443 98.3448225,9.82176004 98.7000388,9.66527778 C99.0552552,9.50879551 99.521846,9.43055556 100.099825,9.43055556 L100.912604,9.43055556 C101.045058,9.43055556 101.159448,9.47870322 101.255778,9.575 C101.352108,9.67129678 101.400272,9.78564749 101.400272,9.91805556 L101.400272,11.1097222 C101.400272,11.2421303 101.352108,11.356481 101.255778,11.4527778 C101.159448,11.5490746 101.045058,11.5972222 100.912604,11.5972222 L99.73859,11.5972222 Z M105.247427,10.3333333 C105.536416,9.98425751 105.885607,9.71643612 106.295009,9.52986111 C106.704411,9.3432861 107.131868,9.25 107.577394,9.25 C108.335991,9.25 108.956106,9.39143377 109.437755,9.67430556 C109.919404,9.95717734 110.298697,10.3273125 110.575646,10.7847222 C110.732182,10.5439803 110.924839,10.3273158 111.153622,10.1347222 C111.382405,9.94212867 111.626237,9.77963029 111.885123,9.64722222 C112.14401,9.51481415 112.411923,9.41550959 112.688872,9.34930556 C112.96582,9.28310152 113.236744,9.25 113.501651,9.25 C114.188001,9.25 114.759951,9.36435071 115.217518,9.59305556 C115.675085,9.8217604 116.045347,10.1287018 116.328316,10.5138889 C116.611285,10.899076 116.809963,11.3474511 116.924354,11.8590278 C117.038746,12.3706044 117.095941,12.9092564 117.095941,13.475 L117.095941,18.3319444 C117.095941,18.4643525 117.047777,18.5787032 116.951447,18.675 C116.855117,18.7712968 116.740727,18.8194444 116.608273,18.8194444 L115.23558,18.8194444 C115.103126,18.8194444 114.988736,18.7712968 114.892406,18.675 C114.796076,18.5787032 114.747912,18.4643525 114.747912,18.3319444 L114.747912,13.5652778 C114.747912,12.7467552 114.591379,12.1750016 114.278306,11.85 C113.965234,11.5249984 113.525736,11.3625 112.959798,11.3625 C112.478149,11.3625 112.065743,11.5189799 111.722567,11.8319444 C111.379392,12.144909 111.195766,12.6925887 111.171684,13.475 L111.171684,18.3319444 C111.171684,18.4643525 111.12352,18.5787032 111.02719,18.675 C110.93086,18.7712968 110.81647,18.8194444 110.684016,18.8194444 L109.311323,18.8194444 C109.178869,18.8194444 109.064479,18.7712968 108.968149,18.675 C108.871819,18.5787032 108.823655,18.4643525 108.823655,18.3319444 L108.823655,13.5652778 C108.823655,12.7467552 108.667121,12.1750016 108.354049,11.85 C108.040977,11.5249984 107.601479,11.3625 107.035541,11.3625 C106.54185,11.3625 106.120413,11.5280076 105.771218,11.8590278 C105.422022,12.190048 105.247427,12.7587923 105.247427,13.5652778 L105.247427,18.3319444 C105.247427,18.4643525 105.199262,18.5787032 105.102933,18.675 C105.006603,18.7712968 104.892213,18.8194444 104.759759,18.8194444 L103.387065,18.8194444 C103.254612,18.8194444 103.140222,18.7712968 103.043892,18.675 C102.947562,18.5787032 102.899398,18.4643525 102.899398,18.3319444 L102.899398,9.91805556 C102.899398,9.78564749 102.947562,9.67129678 103.043892,9.575 C103.140222,9.47870322 103.254612,9.43055556 103.387065,9.43055556 L104.759759,9.43055556 C104.892213,9.43055556 105.006603,9.47870322 105.102933,9.575 C105.199262,9.67129678 105.247427,9.78564749 105.247427,9.91805556 L105.247427,10.3333333 Z M119.498155,11.7416667 C119.54632,11.4888876 119.6577,11.218057 119.832298,10.9291667 C120.006895,10.6402763 120.253737,10.3694457 120.57283,10.1166667 C120.891922,9.86388763 121.283257,9.65625081 121.746844,9.49375 C122.210432,9.33124919 122.749269,9.25 123.363372,9.25 C123.977474,9.25 124.531363,9.33124919 125.025053,9.49375 C125.518744,9.65625081 125.943191,9.89397992 126.298407,10.2069444 C126.653624,10.519909 126.927558,10.914118 127.120218,11.3895833 C127.312877,11.8650487 127.409206,12.4097192 127.409206,13.0236111 L127.409206,18.3319444 C127.409206,18.4643525 127.361041,18.5787032 127.264712,18.675 C127.168382,18.7712968 127.053992,18.8194444 126.921538,18.8194444 L125.548844,18.8194444 C125.416391,18.8194444 125.302001,18.7712968 125.205671,18.675 C125.109341,18.5787032 125.061177,18.4643525 125.061177,18.3319444 L125.061177,17.7361111 C124.808311,18.0851869 124.444069,18.3831006 123.96844,18.6298611 C123.492812,18.8766216 122.887749,19 122.153234,19 C121.635461,19 121.17188,18.9307877 120.762478,18.7923611 C120.353076,18.6539345 120.009906,18.4583346 119.732958,18.2055556 C119.456009,17.9527765 119.242281,17.6548628 119.091765,17.3118056 C118.94125,16.9687483 118.865993,16.5925946 118.865993,16.1833333 C118.865993,15.3527736 119.160999,14.7027801 119.75102,14.2333333 C120.34104,13.7638865 121.129729,13.4449083 122.11711,13.2763889 L125.061177,12.7708333 C125.061177,12.2773123 124.898623,11.9282418 124.573509,11.7236111 C124.248396,11.5189805 123.845021,11.4166667 123.363372,11.4166667 C123.062341,11.4166667 122.82754,11.4587959 122.658963,11.5430556 C122.490386,11.6273152 122.327831,11.7416659 122.171295,11.8861111 C122.062924,11.9824079 121.963586,12.0486109 121.873276,12.0847222 C121.782967,12.1208335 121.683628,12.1388889 121.575257,12.1388889 L119.895514,12.1388889 C119.775101,12.1388889 119.672752,12.1027781 119.588464,12.0305556 C119.504175,11.958333 119.474073,11.8620376 119.498155,11.7416667 Z M122.514469,16.8333333 C122.923871,16.8333333 123.288113,16.776158 123.607205,16.6618056 C123.926298,16.5474531 124.194211,16.3939824 124.410954,16.2013889 C124.627696,16.0087953 124.79025,15.7921308 124.898621,15.5513889 C125.006992,15.3106469 125.061177,15.0638902 125.061177,14.8111111 L125.061177,14.6305556 L122.604778,15.0638889 C122.111087,15.1481486 121.755876,15.271527 121.539134,15.4340278 C121.322392,15.5965286 121.214022,15.8162023 121.214022,16.0930556 C121.214022,16.3458346 121.343463,16.5324068 121.60235,16.6527778 C121.861236,16.7731488 122.165273,16.8333333 122.514469,16.8333333 Z M132.159448,18.3319444 C132.159448,18.4643525 132.111284,18.5787032 132.014954,18.675 C131.918624,18.7712968 131.804234,18.8194444 131.671781,18.8194444 L130.299087,18.8194444 C130.166634,18.8194444 130.052244,18.7712968 129.955914,18.675 C129.859584,18.5787032 129.81142,18.4643525 129.81142,18.3319444 L129.81142,9.91805556 C129.81142,9.78564749 129.859584,9.67129678 129.955914,9.575 C130.052244,9.47870322 130.166634,9.43055556 130.299087,9.43055556 L131.671781,9.43055556 C131.804234,9.43055556 131.918624,9.47870322 132.014954,9.575 C132.111284,9.67129678 132.159448,9.78564749 132.159448,9.91805556 L132.159448,18.3319444 Z M131.76209,6 C131.894543,6 132.008933,6.04814767 132.105263,6.14444444 C132.201593,6.24074122 132.249757,6.35509193 132.249757,6.4875 L132.249757,7.89583333 C132.249757,8.0282414 132.201593,8.14259211 132.105263,8.23888889 C132.008933,8.33518567 131.894543,8.38333333 131.76209,8.38333333 L130.208778,8.38333333 C130.076325,8.38333333 129.961935,8.33518567 129.865605,8.23888889 C129.769275,8.14259211 129.721111,8.0282414 129.721111,7.89583333 L129.721111,6.4875 C129.721111,6.35509193 129.769275,6.24074122 129.865605,6.14444444 C129.961935,6.04814767 130.076325,6 130.208778,6 L131.76209,6 Z M137,18.3319444 C137,18.4643525 136.951836,18.5787032 136.855506,18.675 C136.759176,18.7712968 136.644786,18.8194444 136.512332,18.8194444 L135.139639,18.8194444 C135.007185,18.8194444 134.892795,18.7712968 134.796465,18.675 C134.700135,18.5787032 134.651971,18.4643525 134.651971,18.3319444 L134.651971,6.4875 C134.651971,6.35509193 134.700135,6.24074122 134.796465,6.14444444 C134.892795,6.04814767 135.007185,6 135.139639,6 L136.512332,6 C136.644786,6 136.759176,6.04814767 136.855506,6.14444444 C136.951836,6.24074122 137,6.35509193 137,6.4875 L137,18.3319444 Z" id="burnermail" fill="#0096ff"></path>
        <g id="logo-v2" fill="#0096ff" fill-rule="nonzero">
            <g id="Group">
                <g id="Shape">
                    <path d="M22.1458144,10.9421686 C22.4984985,10.6082784 22.8459972,10.2793087 23.185973,9.9574738 C26.166589,7.13590235 28.0292346,5.37366225 28.1816239,5.23170275 C28.5857322,4.85525225 28.6081532,4.2224844 28.2317028,3.8183761 C27.8552523,3.41426785 27.2224844,3.3918468 26.8183761,3.76829725 C26.6593897,3.9164025 24.8170249,5.6594549 21.8133721,8.502834 C20.7155032,9.5421212 19.5418643,10.6532732 18.3683233,11.7644245 C17.7033262,12.3940756 17.7033262,12.3940756 17.2339337,12.8385364 C16.8818938,13.1718835 16.8818938,13.1718835 16.8036601,13.2459657 C16.4153504,13.6076532 15.7433483,13.6071612 15.3496123,13.2403731 L5.1816239,3.76829725 C4.7775156,3.3918468 4.14474775,3.41426785 3.76829725,3.8183761 C3.3918468,4.2224844 3.41426785,4.85525225 3.8183761,5.23170275 L9.9088211,10.9053084 C9.7768253,11.0328142 9.6386233,11.1663018 9.49512105,11.3048938 C8.69991325,12.0728918 7.9042596,12.8408844 7.161055,13.5576411 C5.31071235,15.3421208 4.09309905,16.5123768 3.8183761,16.7682973 C3.41426785,17.1447478 3.3918468,17.7775156 3.76829725,18.1816239 C4.14474775,18.5857322 4.7775156,18.6081532 5.1816239,18.2317028 C5.4696773,17.9633641 6.6806054,16.7995334 8.53853305,15.0077387 C9.293006,14.2801146 10.0889856,13.5118075 10.8845078,12.7435058 C11.0558222,12.5780532 11.2195867,12.4198717 11.3742618,12.2704521 L13.9863645,14.7037785 C15.1476572,15.7855906 17.0101059,15.7869543 18.1728624,14.7037785 C18.2570361,14.6241175 18.2570361,14.6241175 18.6090584,14.290787 C19.0784318,13.8463444 19.0784318,13.8463444 19.7434053,13.2167156 C20.0598254,12.9171176 20.3762524,12.6175197 20.6911533,12.319374 L21.0193621,12.6290671 C21.4210526,13.0080963 22.0539511,12.9897256 22.4329802,12.5880351 C22.8120095,12.1863445 22.7936388,11.5534461 22.3919482,11.1744169 L22.1458144,10.9421686 Z M32,2.99844335 C32,1.34215885 30.6541571,0 28.9967222,0 L3.0032778,0 C1.3457233,0 0,1.34481815 0,3.00001275 L0,18.9999873 C0,20.6567149 1.34359745,22 3.0001062,22 L17.5,22 C18.0522847,22 18.5,21.5522848 18.5,21 C18.5,20.4477153 18.0522847,20 17.5,20 L3.0001062,20 C2.4480629,20 2,19.5520413 2,18.9999873 L2,3.00001275 C2,2.449689 2.44999165,2 3.0032778,2 L28.9967222,2 C29.550813,2 30,2.44795745 30,2.99844335 L30,9.9941406 C30,10.5464254 30.4477152,10.9941406 31,10.9941406 C31.5522847,10.9941406 32,10.5464254 32,9.9941406 L32,2.99844335 Z"></path>
                    <path d="M29.5153467,15.9468085 L29.145353,15.4148936 L28.4582217,16.106383 C28.2467967,14.3510638 27.5596655,12.9680851 26.2382593,11.6382979 L25.6039843,11 L25.3925593,11.8510638 C25.0754218,13.1276596 24.6525718,14.2446809 24.2825781,15.3617021 C22.9083156,19.3510638 21.7983344,22.5425532 25.6039843,25.6808511 L25.973978,26 L27.5068093,24.4574468 L29.0396405,26 L29.4096342,25.6808511 C33.3209966,22.4893617 31.7353092,19.0851064 29.5153467,15.9468085 Z M29.0924967,24.5638298 L27.5068093,22.9680851 L25.8682655,24.5638298 C23.0668843,22.0106383 23.9654406,19.4574468 25.2339906,15.7340426 C25.551128,14.8829787 25.8154093,14.0319149 26.1325468,13.0744681 C27.0839593,14.2446809 27.453953,15.5744681 27.453953,17.3297872 L27.453953,18.606383 L28.9867842,17.0638298 C31.3124592,20.4680851 31.3124592,22.5425532 29.0924967,24.5638298 Z" stroke="#0096ff"></path>
                </g>
            </g>
        </g>
    </g>
</svg>
