<?xml version="1.0" encoding="UTF-8"?>
<svg width="19px" height="13px" viewBox="0 0 19 13" version="1.1" xmlns="http://www.w3.org/2000/svg" xmlns:xlink="http://www.w3.org/1999/xlink">
    <!-- Generator: Sketch 52.1 (67048) - http://www.bohemiancoding.com/sketch -->
    <title>Icon</title>
    <desc>Created with Sketch.</desc>
    <g id="Two-Tone-Icons" stroke="none" stroke-width="1" fill="none" fill-rule="evenodd">
        <g transform="translate(-611.000000, -241.000000)" fill="#363636" id="Menu">
            <g transform="translate(580.000000, 220.000000)">
                <g id="Icon" transform="translate(31.000000, 21.000000)">
                    <path d="M0.5,1 C0.224,1 0,0.776 0,0.5 C0,0.224 0.224,0 0.5,0 L18.5,0 C18.776,0 19,0.224 19,0.5 C19,0.776 18.776,1 18.5,1 L0.5,1 Z M18.5,6 C18.776,6 19,6.224 19,6.5 C19,6.776 18.776,7 18.5,7 L0.5,7 C0.224,7 0,6.776 0,6.5 C0,6.224 0.224,6 0.5,6 L18.5,6 Z M18.5,12 C18.776,12 19,12.224 19,12.5 C19,12.776 18.776,13 18.5,13 L0.5,13 C0.224,13 0,12.776 0,12.5 C0,12.224 0.224,12 0.5,12 L18.5,12 Z" id="Outline"></path>
                </g>
            </g>
        </g>
    </g>
</svg>
