<?xml version="1.0" encoding="UTF-8"?>
<svg width="24px" height="24px" viewBox="0 0 24 24" version="1.1" xmlns="http://www.w3.org/2000/svg" xmlns:xlink="http://www.w3.org/1999/xlink">
    <!-- Generator: Sketch 52.1 (67048) - http://www.bohemiancoding.com/sketch -->
    <title>Icon</title>
    <desc>Created with Sketch.</desc>
    <g id="Two-Tone-Icons" stroke="none" stroke-width="1" fill="none" fill-rule="evenodd">
        <g transform="translate(-245.000000, -145.000000)" id="Search">
            <g transform="translate(217.000000, 131.000000)">
                <g id="Icon" transform="translate(28.000000, 14.000000)">
                    <path d="M20.8784,23.5 C20.7454,23.5 20.6194,23.448 20.5244,23.354 L16.2824,19.111 C16.0874,18.916 16.0874,18.599 16.2824,18.404 L18.4034,16.282 C18.4984,16.188 18.6234,16.136 18.7574,16.136 C18.8914,16.136 19.0164,16.188 19.1104,16.283 L23.3534,20.525 C23.4474,20.62 23.5004,20.745 23.5004,20.878 C23.5004,21.012 23.4474,21.138 23.3534,21.232 L21.2324,23.354 C21.1374,23.448 21.0124,23.5 20.8784,23.5" id="Fill" fill="none"></path>
                    <path d="M20.8787,22.9999 L16.6357,18.7569 L18.7567,16.6359 L18.7577,16.6359 L18.7577,16.6359 L22.9997,20.8789 L20.8787,22.9999 Z M3.1967,13.8029 C1.7797,12.3869 0.9997,10.5029 0.9997,8.4999 C0.9997,6.4969 1.7797,4.6129 3.1967,3.1969 C4.6137,1.7799 6.4967,0.9999 8.4997,0.9999 C10.5037,0.9999 12.3867,1.7799 13.8037,3.1969 C15.2197,4.6129 15.9997,6.4969 15.9997,8.4999 C15.9997,10.5029 15.2197,12.3869 13.8037,13.8029 C12.3867,15.2199 10.5037,15.9999 8.4997,15.9999 C6.4967,15.9999 4.6137,15.2199 3.1967,13.8029 L3.1967,13.8029 Z M23.7067,20.1719 L19.4647,15.9289 C19.2697,15.7339 19.0137,15.6359 18.7577,15.6359 C18.5017,15.6359 18.2457,15.7339 18.0507,15.9289 L17.3427,16.6359 L14.8457,14.1389 C17.8157,10.8009 17.7107,5.6899 14.5107,2.4899 C12.8507,0.8299 10.6757,-0.0001 8.4997,-0.0001 C6.3247,-0.0001 4.1497,0.8299 2.4897,2.4899 C-0.8303,5.8089 -0.8303,11.1909 2.4897,14.5099 C4.1497,16.1699 6.3247,16.9999 8.4997,16.9999 C10.5187,16.9999 12.5327,16.2759 14.1387,14.8459 L16.6357,17.3429 L15.9287,18.0499 C15.5387,18.4409 15.5387,19.0739 15.9287,19.4649 L20.1717,23.7069 C20.3667,23.9019 20.6227,23.9999 20.8787,23.9999 C21.1347,23.9999 21.3907,23.9019 21.5857,23.7069 L23.7067,21.5859 C24.0977,21.1949 24.0977,20.5619 23.7067,20.1719 L23.7067,20.1719 Z" id="Outline" fill="#c2c2c2"></path>
                </g>
            </g>
        </g>
    </g>
</svg>
