<?xml version="1.0" encoding="UTF-8"?>
<svg width="23px" height="24px" viewBox="0 0 23 24" version="1.1" xmlns="http://www.w3.org/2000/svg" xmlns:xlink="http://www.w3.org/1999/xlink">
    <!-- Generator: Sketch 52.1 (67048) - http://www.bohemiancoding.com/sketch -->
    <title>Icon</title>
    <desc>Created with Sketch.</desc>
    <g id="Two-Tone-Icons" stroke="none" stroke-width="1" fill="none" fill-rule="evenodd">
        <g transform="translate(-879.000000, -55.000000)" id="Settings">
            <g transform="translate(850.000000, 40.000000)">
                <g id="Icon" transform="translate(29.000000, 15.000000)">
                    <path d="M11.5,15.5 C9.843,15.5 8.5,14.157 8.5,12.5 C8.5,10.843 9.843,9.5 11.5,9.5 C13.157,9.5 14.5,10.843 14.5,12.5 C14.5,14.157 13.157,15.5 11.5,15.5 M11.5,7 C8.467,7 6,9.468 6,12.5 C6,15.532 8.467,18 11.5,18 C14.532,18 17,15.532 17,12.5 C17,9.468 14.532,7 11.5,7" id="Fill" fill="#DAF3FF"></path>
                    <path d="M20.0068817,19.232 L17.8358884,17.975 L17.2242988,17.622 L16.6875367,18.082 C15.9432531,18.72 15.0932134,19.211 14.1603648,19.542 L13.4958971,19.778 L13.4958971,20.485 L13.4958971,23 L9.50510057,23 L9.50510057,20.485 L9.50510057,19.778 L8.83963525,19.542 C7.90678655,19.211 7.05674689,18.72 6.31246333,18.082 L5.77669889,17.622 L5.16510932,17.975 L2.9931183,19.232 L0.997720019,15.768 L3.16871334,14.512 L3.77930522,14.159 L3.65060203,13.464 C3.55681831,12.953 3.51092415,12.474 3.51092415,12 C3.51092415,11.526 3.55681831,11.047 3.65060203,10.536 L3.77930522,9.841 L3.16871334,9.488 L0.997720019,8.232 L2.9931183,4.768 L5.16510932,6.024 L5.77669889,6.378 L6.31246333,5.918 C7.05674689,5.28 7.90678655,4.788 8.83963525,4.458 L9.50510057,4.222 L9.50510057,3.515 L9.50510057,1 L13.4958971,1 L13.4958971,3.515 L13.4958971,4.222 L14.1603648,4.458 C15.0932134,4.788 15.9432531,5.28 16.6875367,5.918 L17.2242988,6.378 L17.8358884,6.024 L20.0068817,4.768 L22.00228,8.232 L19.8312867,9.488 L19.2216925,9.841 L19.349398,10.536 C19.4431817,11.047 19.4890759,11.526 19.4890759,12 C19.4890759,12.474 19.4431817,12.953 19.349398,13.464 L19.2216925,14.159 L19.8312867,14.512 L22.00228,15.768 L20.0068817,19.232 Z M22.5011296,14.902 L20.3301362,13.646 C20.4289084,13.111 20.486775,12.563 20.486775,12 C20.486775,11.437 20.4289084,10.888 20.3301362,10.354 L22.5011296,9.098 C22.9780297,8.822 23.1416524,8.21 22.8662874,7.732 L20.8708892,4.268 C20.6863148,3.947 20.3510879,3.768 20.005884,3.768 C19.8362752,3.768 19.6646709,3.811 19.5080321,3.902 L17.3370388,5.158 C16.5059554,4.446 15.5441735,3.888 14.4935963,3.515 L14.4935963,1 C14.4935963,0.448 14.0466271,0 13.4958971,0 L9.50510057,0 C8.95337295,0 8.50740143,0.448 8.50740143,1 L8.50740143,3.515 C7.45582654,3.888 6.49404457,4.446 5.66395889,5.158 L3.49196787,3.902 C3.3353291,3.811 3.16372485,3.768 2.994116,3.768 C2.64990979,3.768 2.31468288,3.947 2.12911084,4.268 L0.133712565,7.732 C-0.141652397,8.21 0.0219702617,8.822 0.49887045,9.098 L2.66986378,10.354 C2.57109156,10.888 2.51322501,11.437 2.51322501,12 C2.51322501,12.563 2.57109156,13.111 2.66986378,13.646 L0.49887045,14.902 C0.0219702617,15.178 -0.141652397,15.79 0.133712565,16.268 L2.12911084,19.732 C2.31468288,20.053 2.64990979,20.232 2.994116,20.232 C3.16372485,20.232 3.3353291,20.189 3.49196787,20.098 L5.66395889,18.841 C6.49404457,19.554 7.45582654,20.112 8.50740143,20.485 L8.50740143,23 C8.50740143,23.552 8.95337295,24 9.50510057,24 L13.4958971,24 C14.0466271,24 14.4935963,23.552 14.4935963,23 L14.4935963,20.485 C15.5441735,20.112 16.5059554,19.554 17.3370388,18.841 L19.5080321,20.098 C19.6646709,20.189 19.8362752,20.232 20.005884,20.232 C20.3510879,20.232 20.6863148,20.053 20.8708892,19.732 L22.8662874,16.268 C23.1416524,15.79 22.9780297,15.178 22.5011296,14.902 L22.5011296,14.902 Z M11.5001995,16.9999 C8.74954302,16.9999 6.51170385,14.7569 6.51170385,11.9999 C6.51170385,9.2429 8.74954302,6.9999 11.5001995,6.9999 C14.2508561,6.9999 16.4886952,9.2429 16.4886952,11.9999 C16.4886952,14.7569 14.2508561,16.9999 11.5001995,16.9999 M11.5001995,5.9999 C8.19382459,5.9999 5.51400471,8.6859 5.51400471,11.9999 C5.51400471,15.3139 8.19382459,17.9999 11.5001995,17.9999 C14.8065745,17.9999 17.4863944,15.3139 17.4863944,11.9999 C17.4863944,8.6859 14.8065745,5.9999 11.5001995,5.9999 M11.5001995,13.9999 C10.3997374,13.9999 9.50480126,13.1029 9.50480126,11.9999 C9.50480126,10.8969 10.3997374,9.9999 11.5001995,9.9999 C12.6006617,9.9999 13.4955978,10.8969 13.4955978,11.9999 C13.4955978,13.1029 12.6006617,13.9999 11.5001995,13.9999 M11.5001995,8.9999 C9.84701207,8.9999 8.50710212,10.3429 8.50710212,11.9999 C8.50710212,13.6569 9.84701207,14.9999 11.5001995,14.9999 C13.153387,14.9999 14.493297,13.6569 14.493297,11.9999 C14.493297,10.3429 13.153387,8.9999 11.5001995,8.9999" id="Outline" fill="#0096ff"></path>
                </g>
            </g>
        </g>
    </g>
</svg>